<svg xmlns="http://www.w3.org/2000/svg" xmlns:xlink="http://www.w3.org/1999/xlink" width="1085" height="603" viewBox="0 0 1085 603">
    <defs>
        <path id="a" d="M497.338 499.39c-10.397 0-20.247-1.984-29.55-5.951-9.303-3.968-17.375-9.371-24.215-16.212-7.114-7.114-12.654-15.322-16.622-24.625-3.967-9.303-5.951-19.153-5.951-29.55V238.773h-22.573V196.91h64.436v226.142c0 9.303 3.283 17.511 9.85 24.625 3.283 3.01 7.045 5.472 11.286 7.388a32.05 32.05 0 0 0 13.34 2.873v41.452zm105.478 0c-10.397 0-20.247-1.984-29.55-5.951-9.303-3.968-17.375-9.371-24.215-16.212-7.114-7.114-12.655-15.322-16.622-24.625-3.967-9.303-5.951-19.153-5.951-29.55 0-10.671 1.984-20.59 5.951-29.756 3.967-9.166 9.508-17.306 16.622-24.42 6.84-7.114 14.912-12.654 24.215-16.622 9.303-3.967 19.153-5.95 29.55-5.95h33.244c-1.642-5.2-4.515-9.85-8.619-13.955-6.566-6.567-14.775-9.85-24.625-9.85H547.41v-41.863h55.407c10.671 0 20.658 1.984 29.96 5.951 9.304 3.968 17.375 9.371 24.216 16.212 7.113 7.114 12.654 15.322 16.622 24.625 3.967 9.303 5.95 19.153 5.95 29.55v66.078c0 10.397-1.983 20.247-5.95 29.55-3.968 9.303-9.509 17.511-16.623 24.625-6.84 6.84-14.911 12.244-24.214 16.212-9.303 3.967-19.153 5.951-29.55 5.951h-.41zm-24.215-100.963c-6.84 6.293-10.26 14.501-10.26 24.625 0 9.576 3.42 17.785 10.26 24.625 3.01 3.01 6.635 5.472 10.876 7.388a32.05 32.05 0 0 0 13.34 2.873c4.924 0 9.507-.958 13.748-2.873 4.241-1.916 7.866-4.378 10.876-7.388 6.84-6.84 10.26-15.049 10.26-24.625v-34.886h-34.885c-9.85 0-17.922 3.42-24.215 10.26zm264.31-95.218c7.115 6.84 12.655 14.912 16.623 24.215 3.967 9.303 5.95 19.153 5.95 29.55v66.078c0 10.397-1.983 20.247-5.95 29.55-3.968 9.303-9.508 17.511-16.622 24.625-6.84 6.84-14.912 12.244-24.215 16.212-9.303 3.967-19.29 5.951-29.96 5.951-10.398 0-20.248-1.984-29.55-5.951-9.304-3.968-17.512-9.371-24.626-16.212-6.84-7.114-12.244-15.322-16.212-24.625-3.967-9.303-5.95-19.153-5.95-29.55V238.773h-22.574V196.91h64.436v91.935c10.397-5.473 21.889-8.209 34.475-8.209 10.671 0 20.658 1.984 29.961 5.951 9.303 3.968 17.374 9.508 24.215 16.622zm-19.289 53.765c0-9.576-3.42-17.785-10.26-24.625-6.567-6.567-14.776-9.85-24.626-9.85-9.303 0-17.51 3.283-24.625 9.85-6.567 7.114-9.85 15.322-9.85 24.625v66.078c0 9.303 3.283 17.511 9.85 24.625 3.283 3.01 7.046 5.472 11.287 7.388a32.05 32.05 0 0 0 13.338 2.873c4.925 0 9.508-.958 13.75-2.873 4.24-1.916 7.866-4.378 10.876-7.388 6.84-6.84 10.26-15.049 10.26-24.625v-66.078zm97.27 120.253c-7.114-7.114-12.655-15.322-16.622-24.625-3.968-9.303-5.952-19.153-5.952-29.55h41.863c0 9.576 3.42 17.785 10.26 24.625 3.01 3.01 6.636 5.472 10.877 7.388 4.241 1.915 8.824 2.873 13.749 2.873 3.01 0 5.951-.274 8.824-.821 2.873-.547 5.54-1.232 8.003-2.052 4.652-1.642 8.345-3.968 11.082-6.978 1.641-1.368 3.146-3.42 4.514-6.156 1.368-3.283 2.052-7.114 2.052-11.492 0-.547-.068-1.368-.205-2.462-.137-1.095-.479-2.189-1.026-3.283-.82-2.463-2.326-4.652-4.515-6.567l-3.078-2.052c-1.231-.821-2.804-1.505-4.72-2.052-2.188-.821-5.061-1.574-8.618-2.258-3.557-.684-7.662-1.026-12.313-1.026-7.935 0-15.117-.615-21.547-1.847-6.43-1.23-12.381-2.94-17.853-5.13-5.473-2.189-10.33-4.993-14.57-8.413-4.241-3.42-7.867-7.046-10.876-10.877-3.831-5.198-6.567-10.397-8.209-15.596-2.462-6.84-3.694-13.27-3.694-19.29 0-12.038 2.737-22.846 8.209-32.422 5.199-9.85 12.45-17.649 21.752-23.394 5.472-3.831 11.765-6.84 18.88-9.03 8.208-2.736 17.51-4.104 27.908-4.104 10.397 0 20.247 1.984 29.55 5.951 9.303 3.968 17.511 9.508 24.625 16.622 6.84 6.84 12.245 14.912 16.212 24.215 3.967 9.303 5.951 19.153 5.951 29.55h-41.863c0-9.303-3.283-17.511-9.85-24.625-7.114-6.567-15.322-9.85-24.625-9.85-6.567 0-12.313.82-17.238 2.462-4.925 2.19-8.618 4.515-11.081 6.978a72.125 72.125 0 0 1-2.257 2.873c-.684.82-1.3 1.915-1.847 3.283-1.642 3.01-2.463 6.84-2.463 11.492 0 1.641.41 3.693 1.232 6.156a22.917 22.917 0 0 0 1.846 3.078c.684.958 1.71 1.984 3.079 3.078 1.368 1.368 3.83 2.736 7.387 4.104 2.463.821 5.404 1.574 8.824 2.258 3.42.684 7.593 1.026 12.518 1.026 15.049 0 28.045 2.326 38.99 6.977 5.472 2.189 10.329 4.993 14.57 8.414 4.24 3.42 7.866 7.045 10.876 10.876 2.189 2.462 3.899 5.062 5.13 7.798 1.231 2.736 2.394 5.335 3.489 7.798 1.368 3.557 2.257 6.908 2.667 10.055.41 3.147.616 6.225.616 9.234 0 11.492-2.6 22.437-7.798 32.834a67.72 67.72 0 0 1-9.645 12.723 78.776 78.776 0 0 1-12.107 10.26c-3.01 2.19-6.088 3.968-9.235 5.336a116.845 116.845 0 0 1-9.644 3.694c-8.482 2.736-17.785 4.104-27.909 4.104-10.671 0-20.658-1.984-29.96-5.951-9.304-3.968-17.375-9.371-24.215-16.212z"/>
    </defs>
    <g fill="none" fill-rule="nonzero">
        <use fill="#000" xlink:href="#a"/>
        <use fill="#D4D721" xlink:href="#a"/>
        <path fill="#6592B5" d="M48.7 524.26v-233l48.69-29.13v233.01z"/>
        <path fill="#81BCE2" d="M48.69 524.26l.01-233L0 262.13v233.01z"/>
        <path fill="#81BCE2" d="M146.08 582.51l.01-58.25L0 436.89v58.25z"/>
        <path fill="#9AC9E3" d="M146.09 524.26L48.7 466.01l48.69-29.12 97.39 58.25z"/>
        <path fill="#E6E246" d="M243.48 291.26l48.69-29.13-48.69-29.12-48.69 29.12z"/>
        <path fill="#81BCE2" d="M243.47 524.26l.01-233-48.7-29.13.01 233.01z"/>
        <path fill="#6592B5" d="M243.48 524.26v-233l48.69-29.13v233.01z"/>
        <path fill="#6592B5" d="M146.09 582.51v-58.25l146.08-87.37v58.25z"/>
        <path fill="#9AC9E3" d="M146.09 524.26l97.39-58.25-48.7-29.12-97.38 58.25z"/>
        <path fill="#6592B5" d="M194.78 378.63v-58.25l97.39-58.25v58.25z"/>
        <path fill="#9AC9E3" d="M194.78 320.38l97.39-58.25-48.69-29.12-97.39 58.25z"/>
        <path fill="#81BCE2" d="M243.47 116.5v100.34l-48.7-29.12V87.38z"/>
        <path fill="#6592B5" d="M243.47 116.5v100.34l48.69-29.12V87.38z"/>
        <path fill="#9AC9E3" d="M146.08 0l-.01 58.25 97.4 58.25 48.69-29.12z"/>
        <path fill="#81BCE2" d="M146.07 58.25l97.4 58.25-.01 58.26L97.39 87.38z"/>
        <path fill="#6592B5" d="M97.39 145.63V87.38l48.7-29.13-.01 58.25z"/>
        <path fill="#9AC9E3" d="M97.39 87.38l97.39-58.25L146.08 0 48.7 58.25z"/>
        <path fill="#E6E246" d="M194.78 320.38l-48.69 29.13M48.7 116.5L0 87.38l48.7-29.13 48.69 29.13z"/>
        <path fill="#B3B627" d="M48.7 349.51V116.5l48.69-29.12v233z"/>
        <path fill="#D4D721" d="M48.69 349.51l.01-233.01L0 87.38v233z"/>
        <path fill="#B3B627" d="M146.09 407.76v-58.25l48.69-29.13v58.25z"/>
        <path fill="#D4D721" d="M146.08 407.76l.01-58.25L0 262.13v58.25z"/>
        <path fill="#E6E246" d="M146.09 349.51L48.7 291.26l48.69-29.13 97.39 58.25z"/>
        <path fill="#6592B5" d="M48.7 525.63v-233l48.69-29.13v233.01z"/>
        <path fill="#81BCE2" d="M48.69 525.63l.01-233L0 263.5v233.01z"/>
        <path fill="#81BCE2" d="M146.08 583.88l.01-58.25L0 438.26v58.25z"/>
        <path fill="#9AC9E3" d="M146.09 525.63L48.7 467.38l48.69-29.12 97.39 58.25z"/>
        <path fill="#E6E246" d="M243.48 292.63l48.69-29.13-48.69-29.12-48.69 29.12z"/>
        <path fill="#81BCE2" d="M243.47 525.63l.01-233-48.7-29.13.01 233.01z"/>
        <path fill="#6592B5" d="M243.48 525.63v-233l48.69-29.13v233.01z"/>
        <path fill="#6592B5" d="M146.09 583.88v-58.25l146.08-87.37v58.25z"/>
        <path fill="#9AC9E3" d="M146.09 525.63l97.39-58.25-48.7-29.12-97.38 58.25z"/>
        <path fill="#6592B5" d="M194.78 380.01v-58.26l97.39-58.25v58.25z"/>
        <path fill="#9AC9E3" d="M194.78 321.75l97.39-58.25-48.69-29.12-97.39 58.25z"/>
        <path fill="#81BCE2" d="M243.47 117.87v100.34l-48.7-29.12V88.75z"/>
        <path fill="#6592B5" d="M243.47 117.87v100.34l48.69-29.12V88.75z"/>
        <path fill="#9AC9E3" d="M146.08 1.37l-.01 58.25 97.4 58.25 48.69-29.12z"/>
        <path fill="#81BCE2" d="M146.07 59.62l97.4 58.25-.01 58.26L97.39 88.75z"/>
        <path fill="#6592B5" d="M97.39 147V88.75l48.7-29.13-.01 58.25z"/>
        <path fill="#9AC9E3" d="M97.39 88.75l97.39-58.25-48.7-29.13L48.7 59.62z"/>
        <path fill="#E6E246" d="M48.7 117.87L0 88.75l48.7-29.13 48.69 29.13z"/>
        <path fill="#B3B627" d="M48.7 350.88V117.87l48.69-29.12v233z"/>
        <path fill="#D4D721" d="M48.69 350.88l.01-233.01L0 88.75v233z"/>
        <path fill="#B3B627" d="M146.09 409.13v-58.25l48.69-29.13v58.26z"/>
        <path fill="#D4D721" d="M146.08 409.13l.01-58.25L0 263.5v58.25z"/>
        <path fill="#E6E246" d="M146.09 350.88L48.7 292.63l48.69-29.13 97.39 58.25z"/>
        <path fill="#6592B5" d="M48.7 524.26v-233l48.69-29.13v233.01z"/>
        <path fill="#81BCE2" d="M48.69 524.26l.01-233L0 262.13v233.01z"/>
        <path fill="#81BCE2" d="M146.08 582.51l.01-58.25L0 436.89v58.25z"/>
        <path fill="#9AC9E3" d="M146.09 524.26L48.7 466.01l48.69-29.12 97.39 58.25z"/>
        <path fill="#E6E246" d="M243.48 291.26l48.69-29.13-48.69-29.12-48.69 29.12z"/>
        <path fill="#81BCE2" d="M243.47 524.26l.01-233-48.7-29.13.01 233.01z"/>
        <path fill="#6592B5" d="M243.48 524.26v-233l48.69-29.13v233.01z"/>
        <path fill="#6592B5" d="M146.09 582.51v-58.25l146.08-87.37v58.25z"/>
        <path fill="#9AC9E3" d="M146.09 524.26l97.39-58.25-48.7-29.12-97.38 58.25z"/>
        <path fill="#6592B5" d="M194.78 378.63v-58.25l97.39-58.25v58.25z"/>
        <path fill="#9AC9E3" d="M194.78 320.38l97.39-58.25-48.69-29.12-97.39 58.25z"/>
        <path fill="#81BCE2" d="M243.47 116.5v100.34l-48.7-29.12V87.38z"/>
        <path fill="#6592B5" d="M243.47 116.5v100.34l48.69-29.12V87.38z"/>
        <path fill="#9AC9E3" d="M146.08 0l-.01 58.25 97.4 58.25 48.69-29.12z"/>
        <path fill="#81BCE2" d="M146.07 58.25l97.4 58.25-.01 58.26L97.39 87.38z"/>
        <path fill="#6592B5" d="M97.39 145.63V87.38l48.7-29.13-.01 58.25z"/>
        <path fill="#9AC9E3" d="M97.39 87.38l97.39-58.25L146.08 0 48.7 58.25z"/>
        <path fill="#E6E246" d="M48.7 116.5L0 87.38l48.7-29.13 48.69 29.13z"/>
        <path fill="#B3B627" d="M48.7 349.51V116.5l48.69-29.12v233z"/>
        <path fill="#D4D721" d="M48.69 349.51l.01-233.01L0 87.38v233z"/>
        <path fill="#B3B627" d="M146.09 407.76v-58.25l48.69-29.13v58.25z"/>
        <path fill="#D4D721" d="M146.08 407.76l.01-58.25L0 262.13v58.25z"/>
        <path fill="#E6E246" d="M146.09 349.51L48.7 291.26l48.69-29.13 97.39 58.25z"/>
    </g>
</svg>
